<svg xmlns="http://www.w3.org/2000/svg" viewBox="0 0 640 320" role="img" aria-labelledby="title desc">
  <title id="title">Saray Gülü Logo</title>
  <desc id="desc">Golden rose monogram with Saray Gülü Cafe Pastane &amp; Restaurant lettering</desc>
  <defs>
    <linearGradient id="shine" x1="0%" y1="0%" x2="100%" y2="100%">
      <stop offset="0%" stop-color="#E9D8A6" stop-opacity="0.85"/>
      <stop offset="50%" stop-color="#D4AF37"/>
      <stop offset="100%" stop-color="#B8860B" stop-opacity="0.9"/>
    </linearGradient>
  </defs>
  <rect width="640" height="320" fill="none"/>
  <g transform="translate(46 64)">
    <circle cx="100" cy="96" r="90" fill="url(#shine)" opacity="0.14"/>
    <circle cx="100" cy="96" r="84" fill="none" stroke="#D4AF37" stroke-width="3" opacity="0.6"/>
    <path d="M100 20c46 0 76 30 76 78 0 45-27 76-73 76-52 0-79-35-79-77C24 55 53 20 100 20z" fill="none" stroke="#D4AF37" stroke-width="6" stroke-linecap="round" stroke-linejoin="round"/>
    <path d="M60 94c0-33 20-52 44-52 16 0 31 9 31 28 0 15-11 26-24 26-12 0-21-8-21-20 0-10 6-17 14-17" fill="none" stroke="#D4AF37" stroke-width="6" stroke-linecap="round" stroke-linejoin="round"/>
    <path d="M114 78c12 0 23 10 23 24 0 22-16 41-45 41" fill="none" stroke="#D4AF37" stroke-width="6" stroke-linecap="round" stroke-linejoin="round"/>
    <circle cx="126" cy="88" r="10" fill="#D4AF37"/>
  </g>
  <g transform="translate(205 120)">
    <text x="0" y="0" fill="#D4AF37" font-family="'Cinzel', 'Times New Roman', serif" font-weight="700" font-size="44" letter-spacing="2">Saray Gülü</text>
    <text x="2" y="34" fill="#C9A227" font-family="'Lato', 'Helvetica', sans-serif" font-size="16" letter-spacing="1.6">Cafe Pastane &amp; Restaurant</text>
  </g>
</svg>
